<svg width="121" height="44" viewBox="0 0 121 44" fill="none" xmlns="http://www.w3.org/2000/svg">
<path d="M27.514 6.54444C28.0865 6.54444 28.5505 6.08039 28.5505 5.50796C28.5505 4.93552 28.0865 4.47147 27.514 4.47147C26.9416 4.47147 26.4775 4.93552 26.4775 5.50796C26.4775 6.08039 26.9416 6.54444 27.514 6.54444Z" fill="#222222"/>
<path d="M54.1586 24.0747C54.731 24.0747 55.195 23.6107 55.195 23.0383C55.195 22.4658 54.731 22.0018 54.1586 22.0018C53.5861 22.0018 53.1221 22.4658 53.1221 23.0383C53.1221 23.6107 53.5861 24.0747 54.1586 24.0747Z" fill="#222222"/>
<path d="M57.3622 24.0747C57.9346 24.0747 58.3987 23.6107 58.3987 23.0383C58.3987 22.4658 57.9346 22.0018 57.3622 22.0018C56.7897 22.0018 56.3257 22.4658 56.3257 23.0383C56.3257 23.6107 56.7897 24.0747 57.3622 24.0747Z" fill="#222222"/>
<path d="M120.844 0H119.016V15.1747H120.844V0Z" fill="#222222"/>
<path d="M45.2204 0.00428065V9.73954C45.2204 12.7334 42.7834 15.1661 39.7939 15.1661H34.5215V2.92101H36.3503V13.333H39.7939C41.7769 13.333 43.3916 11.7183 43.3916 9.73527V0H45.2204V0.00428065Z" fill="#222222"/>
<path d="M97.6608 5.44799V9.73528C97.6608 12.7291 95.5322 15.1618 92.9152 15.1618C91.4933 15.1618 90.157 14.4423 89.2533 13.1917C89.1933 13.1103 89.1376 13.0246 89.0819 12.939C88.2168 14.2881 86.8205 15.1661 85.253 15.1661C83.831 15.1661 82.4947 14.4466 81.591 13.1959C81.531 13.1146 81.4753 13.0289 81.4197 12.939C80.5545 14.2881 79.1625 15.1661 77.5907 15.1661H63.9493V9.79096C63.9493 7.82507 62.3346 6.21037 60.3516 6.21037C58.3685 6.21037 56.7539 7.82506 56.7539 9.80809C56.7539 11.7911 58.3685 13.4058 60.3516 13.4058L61.8421 13.4315V15.2604C61.8421 18.2499 59.4093 20.6869 56.4155 20.6869H55.2591C52.2696 20.6869 49.8325 18.2499 49.8325 15.2604H51.6614C51.6614 17.2434 53.2761 18.8581 55.2591 18.8581H56.4155C58.3985 18.8581 60.0132 17.2434 60.0132 15.2604V15.2261C57.1821 15.059 54.9207 12.6905 54.9207 9.80809C54.9207 6.81427 57.3577 4.38153 60.3473 4.38153C63.3411 4.38153 65.7739 6.81427 65.7739 9.80809V13.3373H77.5864C79.1968 13.3373 80.5031 11.7226 80.5031 9.73956V8.50606H82.3319V9.73956C82.3319 10.6176 82.5932 11.4656 83.0686 12.1252C83.6254 12.8961 84.4221 13.3373 85.2487 13.3373C86.8591 13.3373 88.1654 11.7226 88.1654 9.73956V6.83568H89.9942V9.73956C89.9942 10.6176 90.2555 11.4656 90.7309 12.1252C91.2877 12.8961 92.0843 13.3373 92.911 13.3373C94.5214 13.3373 95.832 11.7226 95.832 9.73956V5.44799H97.6608Z" fill="#222222"/>
<path d="M102.265 20.6012V18.7724C104.248 18.7724 105.863 17.1577 105.863 15.1747V9.8038C105.863 6.80998 108.3 4.37723 111.289 4.37723C114.279 4.37723 116.716 6.81426 116.716 9.8038C116.716 12.7933 114.283 15.2304 111.289 15.2304L107.692 15.2389C107.657 18.2028 105.238 20.6012 102.265 20.6012ZM111.294 6.20607C109.311 6.20607 107.696 7.82077 107.696 9.8038V13.4101L111.294 13.4015C113.281 13.4015 114.896 11.7868 114.896 9.8038C114.891 7.82077 113.277 6.20607 111.294 6.20607Z" fill="#222222"/>
<path d="M5.43084 20.6012V18.7724C7.41387 18.7724 9.02858 17.1577 9.02858 15.1747V15.1618L5.42657 15.1533C2.43703 15.1533 0 12.7162 0 9.7267C0 6.73288 2.43703 4.30014 5.42657 4.30014C8.42039 4.30014 10.8531 6.73716 10.8531 9.7267V9.8295V13.3373L26.7859 13.3972C28.7689 13.3972 30.3836 11.7825 30.3836 9.79951V6.75858H32.2125V9.79951C32.2125 12.7933 29.7754 15.2261 26.7859 15.2261L10.8531 15.179C10.8574 18.1685 8.42038 20.6012 5.43084 20.6012ZM5.43084 6.12469C3.44781 6.12469 1.83312 7.73939 1.83312 9.72242C1.83312 11.7055 3.44781 13.3201 5.43084 13.3201L9.02858 13.3287V9.8038L9.03285 9.701C9.02857 7.73939 7.41387 6.12469 5.43084 6.12469Z" fill="#222222"/>
<path d="M15.3631 28.3152V43.5627H13.53V30.9364L8.4932 41.0057H6.84852L6.84424 40.9972L1.82885 30.9964V43.5627H0V28.3152H2.33852L2.34709 28.3281L7.67515 39.057L12.9904 28.3152H15.3631Z" fill="#222222"/>
<path d="M31.1033 41.3738L31.0862 41.391C30.418 42.0634 29.6128 42.6031 28.6791 42.9843C27.7497 43.3697 26.726 43.5625 25.6296 43.5625C24.5374 43.5625 23.5138 43.374 22.5887 42.9928C21.6635 42.6202 20.8498 42.0805 20.1688 41.3953C19.4878 40.71 18.9567 39.8962 18.5755 38.9754C18.1986 38.0502 18.0059 37.0266 18.0059 35.943C18.0059 34.8466 18.1943 33.8229 18.5755 32.8978C18.9524 31.9726 19.4878 31.1589 20.1688 30.4779C20.8498 29.7969 21.6678 29.2658 22.5887 28.8846C23.5138 28.512 24.5374 28.315 25.6296 28.315C26.7218 28.315 27.7454 28.5077 28.6705 28.8889C29.5999 29.2658 30.4094 29.8012 31.0776 30.4736L31.0947 30.4907L31.0776 30.5079L29.8655 31.7456L29.8484 31.7285C29.3301 31.1546 28.7091 30.7006 27.9853 30.3751C27.2657 30.0453 26.4648 29.8868 25.6082 29.8868C24.7773 29.8868 23.9978 30.0367 23.2996 30.3365C22.5972 30.6321 21.9805 31.0604 21.4622 31.6043C20.944 32.1483 20.5328 32.795 20.2501 33.5317C19.9589 34.2683 19.8176 35.0778 19.8176 35.943C19.8176 36.8124 19.9632 37.6262 20.2501 38.3543C20.5328 39.0824 20.944 39.7335 21.4622 40.2731C21.9805 40.8171 22.5972 41.2454 23.2996 41.5494C24.0021 41.8493 24.7816 41.9992 25.6082 41.9992C26.4648 41.9992 27.2657 41.8321 27.9853 41.5109C28.7091 41.1897 29.3344 40.7314 29.8484 40.1575L29.8655 40.1361L31.1033 41.3738Z" fill="#222222"/>
<path d="M43.301 41.9392V43.5625H33.8398V28.315H43.2025V29.9382H35.6687V35.005H42.7828V36.6326H35.6687V41.9392H43.301Z" fill="#222222"/>
<path d="M55.6661 41.9392V43.5625H46.2949V28.315H48.1238V41.9392H55.6661Z" fill="#222222"/>
<path d="M65.0585 28.3278L65.0542 28.3107H63.0883L56.8351 43.5282L56.8223 43.5624H58.7496L60.3986 39.4593H67.7268L69.3757 43.5453L69.38 43.5624H71.3074L65.0585 28.3278ZM61.0453 37.8318L64.0648 30.3194L67.0843 37.8318H61.0453Z" fill="#222222"/>
<path d="M86.5466 28.315V43.5625H84.6321L84.6192 43.5539L75.1024 31.1931V43.5625H73.2778V28.315H75.1923L75.2009 28.3235L84.722 40.6886V28.315H86.5466Z" fill="#222222"/>
<path d="M102.916 28.315V43.5625H100.993L100.989 43.5539L91.4719 31.1931V43.5625H89.6431V28.315H91.5618L91.5661 28.3235L101.083 40.6886V28.315H102.916Z" fill="#222222"/>
<path d="M120.275 32.8935C119.898 31.9683 119.363 31.1546 118.682 30.4736C118.001 29.7926 117.191 29.2615 116.266 28.8803C115.35 28.5077 114.322 28.3107 113.225 28.3107C112.133 28.3107 111.11 28.5034 110.184 28.8803C109.259 29.2572 108.441 29.7926 107.764 30.4736C107.083 31.1589 106.552 31.9726 106.171 32.8935C105.794 33.8186 105.602 34.8422 105.602 35.9387C105.602 37.0223 105.79 38.0416 106.171 38.9711C106.548 39.8962 107.083 40.71 107.764 41.391C108.45 42.0762 109.264 42.6159 110.184 42.9885C111.11 43.3654 112.133 43.5582 113.225 43.5582C114.322 43.5582 115.345 43.3697 116.266 42.9885C117.191 42.6159 117.997 42.0762 118.682 41.391C119.363 40.7057 119.894 39.8919 120.275 38.9711C120.652 38.0459 120.845 37.0223 120.845 35.9387C120.845 34.8422 120.652 33.8186 120.275 32.8935ZM113.225 41.9991C112.394 41.9991 111.615 41.8492 110.917 41.5494C110.21 41.2496 109.585 40.8213 109.062 40.2731C108.544 39.7334 108.133 39.0824 107.842 38.3457C107.55 37.6091 107.4 36.8039 107.4 35.9387C107.4 35.0735 107.55 34.264 107.842 33.5274C108.133 32.7907 108.544 32.1482 109.062 31.6C109.585 31.0561 110.21 30.6278 110.917 30.3322C111.619 30.0324 112.399 29.8825 113.225 29.8825C114.06 29.8825 114.84 30.0324 115.542 30.3322C116.249 30.6278 116.874 31.0561 117.393 31.6C117.915 32.144 118.326 32.7907 118.613 33.5274C118.905 34.264 119.046 35.0692 119.046 35.9387C119.046 36.7996 118.9 37.6091 118.613 38.3372C118.331 39.0739 117.919 39.7163 117.393 40.2645C116.874 40.8042 116.253 41.2368 115.542 41.5409C114.84 41.8407 114.06 41.9991 113.225 41.9991Z" fill="#222222"/>
</svg>
