<svg width="22" height="22" viewBox="0 0 22 22" fill="none" xmlns="http://www.w3.org/2000/svg">
<path d="M11.2604 9.45134L11.2588 9.45134C10.0414 9.4528 8.86102 9.0322 7.91881 8.26116C6.97756 7.4909 6.33211 6.41849 6.0921 5.22624C6.07639 5.1195 6.08383 5.01061 6.11392 4.90696C6.14432 4.80223 6.19714 4.70536 6.2687 4.62306C6.34026 4.54076 6.42886 4.47501 6.52836 4.43035C6.62786 4.3857 6.73588 4.36321 6.84493 4.36444L6.84493 4.36449L6.84881 4.36444C7.02804 4.36183 7.20231 4.4233 7.34023 4.53778C7.47816 4.65226 7.57068 4.81222 7.60113 4.98887L7.60104 4.98888L7.60214 4.99414C7.77914 5.83897 8.24148 6.59716 8.9115 7.14135C9.58151 7.68553 10.4184 7.98258 11.2816 7.98258C12.1447 7.98258 12.9816 7.68553 13.6516 7.14135C14.3217 6.59716 14.784 5.83897 14.961 4.99414L14.9611 4.99416L14.962 4.98887C14.9924 4.81222 15.085 4.65226 15.2229 4.53778C15.3608 4.4233 15.5351 4.36183 15.7143 4.36444V4.36449L15.7182 4.36444C15.8273 4.36321 15.9353 4.3857 16.0348 4.43035C16.1343 4.47501 16.2229 4.54076 16.2944 4.62306C16.366 4.70536 16.4188 4.80223 16.4492 4.90696C16.4793 5.0106 16.4867 5.11949 16.471 5.22624C16.2296 6.42592 15.5777 7.50404 14.6274 8.27517C13.6761 9.04706 12.4854 9.46301 11.2604 9.45134Z" fill="#222222" stroke="white" stroke-width="0.3"/>
<path d="M18.5584 2.13345L18.5587 2.13344C18.8378 2.13345 19.1055 2.24432 19.3028 2.44166C19.4993 2.63815 19.6101 2.90432 19.611 3.18209L20.3418 18.7344C20.3418 18.7345 20.3418 18.7347 20.3418 18.7348L20.3418 18.7349L20.1919 18.7419L18.5584 2.13345ZM18.5584 2.13345L3.95907 2.16954C3.95901 2.16954 3.95895 2.16954 3.95889 2.16954L18.5584 2.13345ZM3.22819 19.6893C3.1058 19.6895 2.98466 19.6647 2.87214 19.6166C2.75961 19.5685 2.65806 19.4979 2.57365 19.4093C2.48925 19.3207 2.42375 19.2158 2.38115 19.1011C2.33855 18.9863 2.31974 18.8641 2.32586 18.7419L2.17603 18.7348L2.17604 18.7346C2.17604 18.7345 2.17605 18.7345 2.17605 18.7344L2.90675 3.2182L19.2896 19.6893M3.22819 19.6893V19.8393H3.22838H19.2894H19.2896V19.6893M3.22819 19.6893H19.2896M3.22819 19.6893H19.2896M19.2898 21.344H19.2896H3.22819H3.228C2.88118 21.3444 2.5379 21.2743 2.21903 21.1379C1.90016 21.0015 1.61238 20.8016 1.3732 20.5504C1.13401 20.2993 0.948414 20.0021 0.8277 19.677C0.706987 19.3518 0.653679 19.0056 0.671021 18.6592L0.671043 18.6587L1.40193 3.10258L1.40195 3.10204C1.43053 2.44327 1.71248 1.82101 2.18895 1.36519C2.66541 0.909375 3.29955 0.655241 3.95893 0.655861H3.95907L18.5587 0.655861L18.5589 0.655861C19.2183 0.655241 19.8524 0.909375 20.3289 1.36519C20.8053 1.82101 21.0873 2.44327 21.1159 3.10204L21.1159 3.10258L21.8468 18.6587L21.8468 18.6592C21.8641 19.0056 21.8108 19.3518 21.6901 19.677C21.5694 20.0021 21.3838 20.2993 21.1446 20.5504C20.9054 20.8016 20.6176 21.0015 20.2988 21.1379C19.9799 21.2743 19.6366 21.3444 19.2898 21.344Z" fill="#222222" stroke="white" stroke-width="0.3"/>
</svg>
