<svg width="22" height="18" viewBox="0 0 22 18" fill="none" xmlns="http://www.w3.org/2000/svg">
<path d="M15.5768 0.000420791C13.7632 -0.00927173 12.039 0.787253 10.8707 2.17455C9.7098 0.777772 7.98084 -0.0210186 6.16465 0.000420791C2.76 0.000420791 0 2.76042 0 6.16508C0 11.9996 10.1827 17.6963 10.5956 17.9165C10.7621 18.0278 10.9794 18.0278 11.146 17.9165C11.5588 17.6963 21.7415 12.0821 21.7415 6.16508C21.7415 2.76042 18.9815 0.000420791 15.5768 0.000420791ZM10.8707 16.8157C9.27453 15.88 1.10084 10.8987 1.10084 6.16508C1.10084 3.36841 3.36799 1.10121 6.16471 1.10121C7.87733 1.07871 9.48008 1.94256 10.4029 3.38543C10.5903 3.64381 10.9517 3.70138 11.2101 3.51396C11.2594 3.47814 11.3028 3.43479 11.3386 3.38543C12.8691 1.04474 16.0074 0.387964 18.3481 1.91849C19.781 2.85545 20.6435 4.45298 20.6406 6.16502C20.6407 10.9537 12.467 15.9075 10.8707 16.8157Z" fill="#222222"/>
</svg>
