<svg width="20" height="20" viewBox="0 0 20 20" fill="none" xmlns="http://www.w3.org/2000/svg">
<path d="M18.7632 17.0263V10.3819C18.7632 9.8465 18.6542 9.31668 18.443 8.8247C18.2318 8.33271 17.9227 7.88883 17.5345 7.52007L11.2414 1.54277C10.8746 1.1943 10.388 1 9.88207 1C9.37613 1 8.88951 1.1943 8.5227 1.54277L2.22862 7.52007C1.84045 7.88883 1.53135 8.33271 1.32014 8.8247C1.10892 9.31668 0.999999 9.8465 1 10.3819V17.0263C1 17.5498 1.20794 18.0518 1.57808 18.4219C1.94822 18.7921 2.45023 19 2.97368 19H16.7895C17.3129 19 17.8149 18.7921 18.1851 18.4219C18.5552 18.0518 18.7632 17.5498 18.7632 17.0263Z" stroke="#222222" stroke-width="1.2" stroke-linecap="round" stroke-linejoin="round"/>
</svg>
