<svg width="14" height="16" viewBox="0 0 14 16" fill="none" xmlns="http://www.w3.org/2000/svg">
<path d="M7.3739 0.209206C7.43219 0.149334 7.50189 0.101747 7.57888 0.0692534C7.65587 0.0367602 7.73858 0.0200195 7.82215 0.0200195C7.90571 0.0200195 7.98843 0.0367602 8.06542 0.0692534C8.14241 0.101747 8.2121 0.149334 8.2704 0.209206C8.38992 0.331928 8.4568 0.496463 8.4568 0.667768C8.4568 0.839074 8.38992 1.00361 8.2704 1.12633L1.57002 7.99858L8.2704 14.8722C8.33072 14.934 8.37828 15.007 8.41037 15.0871C8.44246 15.1673 8.45845 15.2529 8.45743 15.3392C8.4564 15.4255 8.43839 15.5108 8.40441 15.5902C8.37043 15.6695 8.32116 15.7414 8.2594 15.8017C8.20057 15.8592 8.13098 15.9045 8.05462 15.9351C7.97826 15.9656 7.89662 15.9809 7.81437 15.9798C7.73212 15.9788 7.65088 15.9616 7.5753 15.9291C7.49972 15.8967 7.43128 15.8496 7.3739 15.7907L0.24865 8.47846C0.123505 8.35007 0.0534668 8.17787 0.0534668 7.99858C0.0534668 7.81929 0.123505 7.6471 0.24865 7.51871L7.3739 0.209206ZM12.8739 0.209206C12.9322 0.149334 13.0019 0.101747 13.0789 0.0692534C13.1559 0.0367602 13.2386 0.0200195 13.3221 0.0200195C13.4057 0.0200195 13.4884 0.0367602 13.5654 0.0692534C13.6424 0.101747 13.7121 0.149334 13.7704 0.209206C13.8899 0.331928 13.9568 0.496463 13.9568 0.667768C13.9568 0.839074 13.8899 1.00361 13.7704 1.12633L7.07002 7.99858L13.7704 14.8722C13.8307 14.934 13.8783 15.007 13.9104 15.0871C13.9425 15.1673 13.9584 15.2529 13.9574 15.3392C13.9564 15.4255 13.9384 15.5108 13.9044 15.5902C13.8704 15.6695 13.8212 15.7414 13.7594 15.8017C13.7006 15.8592 13.631 15.9045 13.5546 15.9351C13.4783 15.9656 13.3966 15.9809 13.3144 15.9798C13.2321 15.9788 13.1509 15.9616 13.0753 15.9291C12.9997 15.8967 12.9313 15.8496 12.8739 15.7907L5.74865 8.47846C5.62351 8.35007 5.55347 8.17787 5.55347 7.99858C5.55347 7.81929 5.62351 7.6471 5.74865 7.51871L12.8739 0.209206Z" fill="#DE68C9"/>
</svg>
