<svg width="16" height="16" viewBox="0 0 16 16" fill="none" xmlns="http://www.w3.org/2000/svg">
<path d="M5.75012 0.6875C5.75012 0.538316 5.80938 0.395242 5.91487 0.289752C6.02036 0.184263 6.16344 0.125 6.31262 0.125C6.46181 0.125 6.60488 0.184263 6.71037 0.289752C6.81586 0.395242 6.87512 0.538316 6.87512 0.6875V14.5171C6.8751 14.6283 6.84213 14.737 6.7804 14.8294C6.71866 14.9219 6.63091 14.9939 6.52823 15.0365C6.42556 15.0792 6.31256 15.0904 6.2035 15.0688C6.09445 15.0473 5.99423 14.9939 5.9155 14.9154L0.686496 9.6875C0.634112 9.63525 0.592551 9.57318 0.564194 9.50484C0.535837 9.4365 0.52124 9.36324 0.52124 9.28925C0.52124 9.21526 0.535837 9.142 0.564194 9.07366C0.592551 9.00532 0.634112 8.94325 0.686496 8.891H0.688746C0.794184 8.78589 0.936991 8.72687 1.08587 8.72687C1.23475 8.72687 1.37756 8.78589 1.483 8.891L5.75012 13.1615V0.6875ZM9.12512 1.48287C9.12537 1.3718 9.15849 1.26329 9.22031 1.17102C9.28214 1.07874 9.3699 1.00684 9.47253 0.964366C9.57516 0.921894 9.68807 0.910757 9.79702 0.932358C9.90597 0.95396 10.0061 1.00733 10.0847 1.08575L15.3137 6.3125C15.3661 6.36475 15.4077 6.42682 15.436 6.49516C15.4644 6.5635 15.479 6.63676 15.479 6.71075C15.479 6.78474 15.4644 6.858 15.436 6.92634C15.4077 6.99468 15.3661 7.05675 15.3137 7.109H15.3115C15.2061 7.21411 15.0633 7.27313 14.9144 7.27313C14.7655 7.27313 14.6227 7.21411 14.5172 7.109L10.2501 2.84075V15.3125C10.2501 15.4617 10.1909 15.6048 10.0854 15.7102C9.97988 15.8157 9.83681 15.875 9.68762 15.875C9.53844 15.875 9.39536 15.8157 9.28987 15.7102C9.18438 15.6048 9.12512 15.4617 9.12512 15.3125V1.48287Z" fill="#DE68C9"/>
</svg>
