<svg width="18" height="18" viewBox="0 0 18 18" fill="none" xmlns="http://www.w3.org/2000/svg">
<path d="M11.1513 9.2534C12.7646 8.45707 13.8774 6.79483 13.8774 4.87718C13.8774 2.18789 11.6895 0 9.00023 0C6.31093 0 4.12305 2.18789 4.12305 4.87718C4.12305 6.79483 5.23584 8.45707 6.84915 9.2534C2.92182 10.1786 0 13.578 0 17.6184C0 17.829 0.171027 18 0.381556 18H17.6189C17.8294 18 18.0005 17.829 18.0005 17.6184C18.0005 13.578 15.0786 10.1786 11.1513 9.2534ZM4.88616 4.87673C4.88616 2.60805 6.73154 0.762663 9.00023 0.762663C11.2689 0.762663 13.1143 2.60805 13.1143 4.87673C13.1143 7.14542 11.2689 8.9908 9.00023 8.9908C6.73154 8.9908 4.88616 7.14542 4.88616 4.87673ZM0.772538 17.2369C0.982169 13.0842 4.59213 9.76693 9.00023 9.76693C13.4083 9.76693 17.0183 13.0842 17.2279 17.2369H0.772538Z" fill="#222222"/>
</svg>
